<svg width="2048" height="2048" xmlns="http://www.w3.org/2000/svg">

 <g>
  <title>background</title>
  <rect fill="none" id="canvas_background" height="402" width="582" y="-1" x="-1"/>
 </g>
 <g>
  <title>Layer 1</title>
  <path fill="white" id="svg_3" d="m1150.372344,607.006547l0,0zm-239.668,-79.6406l0,245.334c0,8.83583 -7.16457,16.0004 -16.0004,16.0004l-180.266,0l0,213.332l180.266,0c8.83583,0 16.0004,7.16457 16.0004,16.0004l0,720.001l239.668,0l0,-720.001c0,-8.83583 7.16457,-16.0004 16.0004,-16.0004l203,0l0,-213.332l-203,0c-8.83583,0 -16.0004,-7.16457 -16.0004,-16.0004l0,-165.705l0.02126,-0.81142l0.04488,0.00236c2.03622,-39.913 13.3134,-66.7808 33.6898,-84.2741c0.36496,-0.36614 0.75,-0.71811 1.15748,-1.05473l0.01299,0.01536c20.7756,-17.1484 49.4197,-23.6835 86.1166,-23.6835l97.9572,0l0,-199.156l-272.682,0c-68.2229,0 -112.804,24.6414 -140.936,64.7067c-28.9878,41.2819 -41.6469,99.3343 -45.0532,164.277l0.00355,0.34961l-0.00056,-0.00028z" class="fil2"/>
  <rect x="-1757.417145" y="41.772232" fill="none" id="svg_4" width="2048" height="2048" class="fil0"/>
  <ellipse stroke="white" ry="951.810114" rx="968.2205" id="svg_5" cy="1028.289045" cx="1032.951182" stroke-width="60" fill="none"/>
 </g>
</svg>