<svg width="48" height="48" xmlns="http://www.w3.org/2000/svg">

 <g>
  <title>background</title>
  <rect fill="none" id="canvas_background" height="402" width="582" y="-1" x="-1"/>
 </g>
 <g>
  <title>Layer 1</title>
  <path stroke-miterlimit="10" stroke-linejoin="round" stroke-linecap="round" stroke-width="0.7" fill="white" id="svg_2" d="m26.848229,20.430592c0,-0.60541 -0.010121,-1.211074 0.004552,-1.81612c0.006696,-0.275755 -0.080694,-0.37934 -0.363499,-0.377304c-1.471113,0.010637 -2.942382,0.010007 -4.413507,0.000267c-0.269702,-0.001781 -0.37035,0.072425 -0.369943,0.363457c0.007546,5.482392 0.007414,10.964785 0.000216,16.447177c-0.000371,0.284768 0.089545,0.370265 0.365008,0.36846c1.538883,-0.010128 3.077898,-0.010952 4.616757,0.000678c0.280003,0.002108 0.358552,-0.085328 0.357474,-0.367261c-0.010013,-2.604094 -0.013283,-5.208286 -0.000635,-7.812368c0.003138,-0.643064 0.042173,-1.289314 0.117489,-1.927738c0.082227,-0.697013 0.302892,-1.356008 0.787091,-1.887612c0.621631,-0.682499 1.429203,-0.83635 2.301,-0.819825c1.21685,0.023067 1.975111,0.596469 2.322799,1.77465c0.224079,0.759297 0.242009,1.539978 0.242417,2.322306c0.001437,2.77057 0.00024,5.541139 0.00103,8.311709c0.000108,0.387081 0.012433,0.399863 0.388688,0.400154c1.500231,0.001175 3.00045,0.000739 4.500681,0.000424c0.467621,-0.000097 0.470089,-0.0008 0.468184,-0.467078c-0.013619,-3.356825 -0.022434,-6.713687 -0.046222,-10.070439c-0.007306,-1.028364 -0.143756,-2.045122 -0.422178,-3.036438c-0.426226,-1.517674 -1.229211,-2.755498 -2.704086,-3.401979c-1.543051,-0.676357 -3.159035,-0.798708 -4.792793,-0.393345c-1.410015,0.349863 -2.524588,1.150316 -3.360523,2.388225zm-8.34696,6.412103c0,-2.740851 -0.004803,-5.481714 0.006875,-8.222504c0.001258,-0.297477 -0.077244,-0.3865 -0.371189,-0.384053c-1.528953,0.012697 -3.058122,0.011861 -4.587112,0.000509c-0.286519,-0.002132 -0.383059,0.07904 -0.382604,0.381218c0.008253,5.471889 0.008205,10.943801 0.000072,16.41569c-0.000443,0.299403 0.090611,0.385858 0.380244,0.383629c1.528977,-0.01174 3.058134,-0.011921 4.587112,0.000157c0.289908,0.00229 0.37507,-0.080033 0.373728,-0.381496c-0.012169,-2.731013 -0.007127,-5.462087 -0.007127,-8.193149zm-5.73842,-13.938454c0.000287,1.709058 1.384059,3.140132 3.076209,3.122989c1.746049,-0.0177 3.100859,-1.347915 3.097709,-3.126442c-0.00321,-1.809517 -1.38249,-3.127605 -3.100979,-3.117513c-1.832588,0.010746 -3.069717,1.494328 -3.072939,3.120966z" class="st1"/>
  <ellipse stroke="white" ry="23.391608" rx="23.216782" id="svg_3" cy="24.065559" cx="24.034965" stroke-width="1.5" fill="none"/>
 </g>
</svg>