<svg width="2048" height="2048" xmlns="http://www.w3.org/2000/svg">

 <g>
  <title>background</title>
  <rect fill="none" id="canvas_background" height="402" width="582" y="-1" x="-1"/>
 </g>
 <g>
  <title>Layer 1</title>
  <path stroke="null" fill-rule="nonzero" fill="#ffffff" id="svg_1" d="m1401.88514,465.267237c84.836951,61.97493 143.895376,151.27059 159.708209,264.882119l0.007243,-0.00102c6.397576,45.657214 7.705025,91.842302 4.211953,137.154168c-8.356674,108.376855 -44.126263,212.258822 -103.337772,292.625806c-59.838295,81.218083 -143.527554,138.523981 -247.084268,152.657688c-25.61826,3.495055 -52.363982,4.346361 -80.164739,2.258921l-0.054823,0c-62.309444,-4.911856 -96.988468,-28.623911 -137.591612,-56.385314c-7.873628,-5.382424 -15.982031,-10.926097 -24.454542,-16.435079c-16.095793,81.346768 -34.414542,160.638038 -62.374601,230.779388c-30.760058,77.164732 -73.122703,143.224557 -136.741243,188.867425l-18.806902,13.493308l-3.251028,-22.784185c-28.188634,-197.609167 15.347976,-358.067443 57.655798,-513.997991c14.611544,-53.850771 29.075084,-107.160876 40.140827,-160.20592c-25.012143,-44.655824 -31.592737,-102.984026 -23.031247,-158.118791c6.065547,-39.057998 19.733725,-76.752319 39.82739,-107.051982c20.717386,-31.240124 48.372327,-54.801084 81.825892,-64.449236c25.883004,-7.464756 54.798874,-6.515454 86.109264,5.723356l0,0.054101c103.817692,40.614659 67.583658,152.837449 31.366263,265.003112c-11.382244,35.250609 -22.764401,70.496119 -29.413393,103.334906c-13.335115,65.853791 -5.683862,119.608459 69.543798,134.443061l0,0.054101c42.092647,8.40997 79.635163,0.578761 112.004354,-18.713463c44.549258,-26.549745 79.81198,-74.80269 104.155738,-132.700762c24.755543,-58.880016 38.093811,-127.380529 38.426865,-193.280211c0.439608,-86.92826 -21.611105,-168.899265 -69.806528,-217.165951c-54.211323,-54.260073 -120.942422,-81.393696 -189.577963,-86.67331c-66.246276,-5.095593 -134.299607,10.053392 -194.748486,40.761666c-60.543725,30.756239 -113.379306,77.031035 -149.080787,134.126751c-38.523024,61.609531 -57.102402,135.95288 -43.811775,217.091627c4.000946,24.485778 15.933426,43.905581 27.394226,62.555696c25.354479,41.260848 48.724035,79.292999 3.990603,157.519012l-5.085994,8.893847l-10.074726,-2.196653c-70.380592,-15.351069 -118.137344,-49.020559 -148.686692,-96.489296c-30.052614,-46.696284 -42.929441,-106.377879 -44.04035,-174.780387l0,-0.324607c1.508113,-129.173817 48.590568,-243.461179 127.73574,-329.165681c79.536902,-86.127978 191.358396,-143.336044 321.752962,-157.728157c12.771385,-1.416802 25.627543,-2.488592 38.547896,-3.22149c12.614185,-0.714524 25.453791,-1.084036 38.488957,-1.113637c127.772522,-0.283763 247.731459,34.52491 338.325959,100.703309l-0.000464,-0.000242z" class="fil0"/>
  <ellipse stroke="#ffffff" ry="968.257024" rx="974.224674" id="svg_3" cy="1023.813511" cx="1029.967618" stroke-width="60" fill="none"/>
 </g>
</svg>